<?xml version="1.0" encoding="UTF-8" standalone="no"?>
<!DOCTYPE svg PUBLIC "-//W3C//DTD SVG 1.1//EN" "http://www.w3.org/Graphics/SVG/1.1/DTD/svg11.dtd">
<svg width="100%" height="100%" viewBox="0 0 16 16" version="1.1" xmlns="http://www.w3.org/2000/svg" xmlns:xlink="http://www.w3.org/1999/xlink" xml:space="preserve" xmlns:serif="http://www.serif.com/" style="fill-rule:evenodd;clip-rule:evenodd;stroke-linejoin:round;stroke-miterlimit:2;">
    <g transform="matrix(1.03689,0,0,1.02126,-0.311788,-0.740194)">
        <path d="M3.841,13.769C3.835,13.64 3.894,13.516 4,13.439L4.017,13.424C4.649,13.01 5.124,12.582 5.448,12.103C5.618,11.85 5.908,11.704 6.213,11.721C6.563,11.735 6.909,11.734 7.254,11.717C7.573,11.701 7.874,11.861 8.04,12.133C8.357,12.666 8.774,13.066 9.341,13.426C9.389,13.456 9.428,13.496 9.454,13.543C9.451,13.538 9.457,13.548 9.457,13.548L9.49,13.609L9.514,13.694L9.519,13.746L9.515,13.808C8.942,14.037 8.334,14.197 7.702,14.279C7.385,14.313 7.063,14.33 6.738,14.33C6.361,14.33 5.99,14.307 5.626,14.261C5.003,14.17 4.404,14.003 3.841,13.769ZM3.325,6.731C3.714,6.499 4.159,6.375 4.616,6.375L8.922,6.375C9.241,6.375 9.558,6.424 9.862,6.519C10.925,6.849 12.319,6.507 13.865,5.853C14.165,5.729 13.944,5.833 14.317,5.646C14.655,5.478 16.037,5.218 15.67,6.05C15.437,6.248 15.002,6.637 15.002,6.637C14.668,6.933 14.353,7.238 14.046,7.544C13.843,7.745 13.681,7.91 13.572,8.023C11.876,9.741 10.249,11.354 6.663,11.314C4.995,11.295 3.618,10.602 2.885,9.718C2.858,9.745 2.826,9.766 2.788,9.78C2.657,9.831 2.505,9.888 2.411,9.914C1.701,10.11 1.198,9.987 0.872,9.736C0.548,9.486 0.364,9.099 0.314,8.658C0.214,7.779 0.685,6.686 1.482,6.316C1.96,6.094 2.565,6.106 3.234,6.613C3.276,6.645 3.307,6.686 3.325,6.731ZM2.695,7.269C2.419,7.087 2.166,7.03 1.941,7.076C1.517,7.163 1.226,7.598 1.117,8.047C1.045,8.343 1.107,8.654 1.245,8.874C1.333,9.014 1.479,9.101 1.682,9.126C1.902,9.153 2.137,9.112 2.448,8.991C2.219,8.403 2.274,7.79 2.695,7.269ZM7.18,4.351C7.39,4.197 7.526,3.949 7.526,3.669C7.526,3.347 7.156,2.741 6.906,2.367C6.855,2.292 6.771,2.247 6.68,2.247C6.59,2.247 6.505,2.292 6.455,2.367C6.204,2.741 5.835,3.347 5.835,3.669C5.835,3.95 5.972,4.2 6.184,4.354C5.202,4.447 4.31,4.812 4.055,5.439C4.02,5.523 4.03,5.618 4.08,5.694C4.131,5.769 4.215,5.814 4.306,5.814L9.054,5.814C9.144,5.814 9.228,5.769 9.279,5.694C9.329,5.62 9.339,5.525 9.306,5.441C9.128,4.993 8.641,4.682 8.028,4.505C7.764,4.429 7.476,4.377 7.18,4.351Z" style="fill:rgb(108,112,126);"/>
    </g>
</svg>
