<?xml version="1.0" encoding="UTF-8" standalone="no"?>
<!DOCTYPE svg PUBLIC "-//W3C//DTD SVG 1.1//EN" "http://www.w3.org/Graphics/SVG/1.1/DTD/svg11.dtd">
<svg width="100%" height="100%" viewBox="0 0 16 16" version="1.1" xmlns="http://www.w3.org/2000/svg" xmlns:xlink="http://www.w3.org/1999/xlink" xml:space="preserve" xmlns:serif="http://www.serif.com/" style="fill-rule:evenodd;clip-rule:evenodd;stroke-linejoin:round;stroke-miterlimit:2;">
    <g transform="matrix(1,0,0,1,-72,-380)">
        <g id="IntelliJ-LSP-Icon--simplified-" serif:id="IntelliJ LSP Icon (simplified)" transform="matrix(0.0625,0,0,0.0625,72,380)">
            <rect x="0" y="0" width="256" height="256" style="fill:none;"/>
            <circle cx="128" cy="128" r="128" style="fill:rgb(42,130,200);"/>
            <clipPath id="_clip1">
                <circle cx="128" cy="128" r="128"/>
            </clipPath>
            <g clip-path="url(#_clip1)">
                <g transform="matrix(16,0,0,16,-1408,-6080)">
                    <path d="M93.197,394.772C93.192,394.647 93.249,394.526 93.352,394.452L93.368,394.437C93.982,394.035 94.444,393.619 94.759,393.154C94.923,392.908 95.206,392.767 95.501,392.783C95.842,392.797 96.177,392.796 96.513,392.779C96.822,392.763 97.115,392.919 97.276,393.184C97.584,393.701 97.989,394.089 98.54,394.439C98.586,394.469 98.624,394.507 98.649,394.553C98.646,394.548 98.652,394.557 98.652,394.557L98.685,394.617L98.708,394.699L98.713,394.75L98.709,394.81C98.152,395.032 97.562,395.188 96.948,395.267C96.64,395.301 96.327,395.318 96.011,395.318C95.645,395.318 95.285,395.295 94.931,395.251C94.326,395.162 93.745,394.999 93.197,394.772ZM104.674,386.151C104.679,386.274 104.682,386.398 104.682,386.522C104.682,386.758 104.672,386.992 104.654,387.223C104.427,387.416 104.004,387.794 104.004,387.794C103.68,388.08 103.374,388.377 103.076,388.675C102.879,388.869 102.722,389.03 102.615,389.14C100.969,390.808 99.388,392.375 95.905,392.335C92.596,392.298 90.464,389.526 92.446,388.031C92.87,387.711 93.386,387.539 93.917,387.539C94.917,387.539 97.074,387.539 98.099,387.539C98.409,387.539 98.717,387.586 99.012,387.678C100.045,387.999 101.398,387.667 102.901,387.031C103.191,386.912 103.543,386.757 103.906,386.575C103.938,386.559 104.456,386.285 104.674,386.151ZM91.67,388.194C91.74,388.091 91.718,387.951 91.618,387.876C91.059,387.452 90.553,387.442 90.154,387.628C89.488,387.937 89.094,388.85 89.178,389.585C89.219,389.953 89.373,390.277 89.644,390.486C89.916,390.696 90.337,390.798 90.93,390.635C91.009,390.613 91.136,390.566 91.245,390.523C91.365,390.478 91.427,390.346 91.384,390.225C91.354,390.143 91.321,390.05 91.291,389.968C91.272,389.914 91.232,389.87 91.18,389.846C91.128,389.823 91.068,389.821 91.015,389.842C90.728,389.96 90.517,390 90.321,389.976C90.151,389.955 90.029,389.882 89.956,389.766C89.84,389.582 89.789,389.322 89.849,389.074C89.939,388.699 90.183,388.335 90.537,388.263C90.743,388.221 90.977,388.282 91.235,388.471C91.278,388.501 91.331,388.514 91.383,388.505C91.435,388.496 91.481,388.466 91.511,388.423C91.561,388.351 91.619,388.267 91.67,388.194ZM96.469,385.692C96.673,385.543 96.805,385.302 96.805,385.03C96.805,384.717 96.446,384.129 96.202,383.766C96.153,383.693 96.071,383.649 95.983,383.649C95.895,383.649 95.813,383.693 95.764,383.766C95.521,384.129 95.162,384.717 95.162,385.03C95.162,385.304 95.296,385.546 95.501,385.695C94.547,385.786 93.681,386.14 93.433,386.749C93.4,386.831 93.409,386.924 93.458,386.997C93.507,387.07 93.589,387.114 93.677,387.114C94.61,387.114 97.355,387.114 98.289,387.113C98.376,387.113 98.458,387.07 98.507,386.997C98.556,386.925 98.566,386.833 98.533,386.752C98.361,386.316 97.887,386.014 97.292,385.842C97.036,385.768 96.756,385.718 96.469,385.692Z" style="fill:rgb(249,213,75);"/>
                </g>
            </g>
        </g>
    </g>
</svg>
